<?xml version="1.0" standalone="no"?>
<!DOCTYPE svg PUBLIC "-//W3C//DTD SVG 20010904//EN"
 "http://www.w3.org/TR/2001/REC-SVG-20010904/DTD/svg10.dtd">
<svg version="1.0" xmlns="http://www.w3.org/2000/svg"
 width="637.000000pt" height="637.000000pt" viewBox="0 0 637.000000 637.000000"
 preserveAspectRatio="xMidYMid meet">
<metadata>
Created by potrace 1.11, written by Peter Selinger 2001-2013
</metadata>
<g transform="translate(0.000000,637.000000) scale(0.100000,-0.100000)"
fill="#000000" stroke="none">
<path d="M2065 5948 c-33 -4 -63 -9 -67 -10 -5 -2 75 -3 177 -3 114 0 174 3
157 8 -38 12 -195 15 -267 5z"/>
<path d="M397 5924 c-3 -4 -31 -6 -62 -5 l-57 0 7 -39 c6 -35 4 -40 -22 -54
-37 -20 -93 -69 -93 -82 0 -5 21 -16 46 -23 49 -15 71 -40 84 -97 7 -29 5 -39
-11 -52 -28 -24 -24 -32 16 -32 19 0 35 5 35 10 0 6 -6 10 -12 10 -8 0 -6 5 4
11 19 10 63 6 81 -9 7 -6 41 -13 77 -17 36 -4 74 -13 86 -20 11 -7 40 -18 62
-25 23 -6 42 -15 42 -20 0 -6 11 -10 25 -10 29 0 34 16 8 23 -10 3 3 5 29 6
28 1 53 7 63 17 8 9 24 14 35 11 11 -3 24 1 31 9 15 18 39 18 74 0 24 -13 32
-12 61 2 19 8 34 20 34 24 0 5 12 8 28 7 44 -3 64 0 57 11 -4 6 -18 10 -33 10
-49 -1 -93 12 -99 29 -8 22 -33 44 -65 58 -30 14 -33 20 -18 43 11 18 -28 93
-46 86 -7 -3 -14 5 -16 17 -2 14 -11 23 -25 25 -16 2 -25 13 -31 35 -8 31 -9
31 -20 11 -9 -18 -8 -25 8 -39 11 -10 20 -26 20 -36 0 -10 9 -34 21 -53 l21
-36 -35 0 c-34 0 -47 12 -47 45 0 8 -13 34 -30 58 -16 25 -30 57 -30 72 0 25
-2 26 -41 23 -46 -3 -76 -31 -50 -47 7 -5 22 -6 32 -4 14 4 19 0 19 -14 0 -11
-2 -22 -5 -25 -9 -8 -110 11 -113 22 -2 5 -16 10 -30 10 -42 0 -72 11 -72 26
0 15 -34 37 -43 28z"/>
<path d="M2326 5903 c-3 -4 -50 -8 -103 -10 -53 -1 -101 -7 -107 -13 -5 -5
-33 -10 -61 -10 -27 0 -70 -5 -95 -11 -25 -6 -52 -12 -60 -13 -8 -1 -28 -8
-44 -14 -16 -7 -31 -11 -33 -8 -5 5 -123 -55 -171 -87 -18 -12 -61 -45 -95
-74 -58 -50 -88 -63 -55 -26 8 10 18 25 22 33 4 8 -6 0 -23 -19 -17 -19 -28
-38 -25 -43 3 -4 -2 -8 -11 -8 -28 0 -83 -54 -92 -90 -3 -14 -21 -40 -40 -58
-18 -18 -30 -38 -27 -44 4 -6 2 -8 -3 -5 -16 10 -34 -18 -26 -38 4 -12 3 -16
-4 -12 -14 9 -29 -10 -38 -45 -4 -15 -13 -29 -21 -32 -8 -3 -14 -11 -14 -18 0
-9 3 -9 11 2 9 13 10 13 6 0 -2 -8 -9 -16 -15 -16 -7 -1 -16 -2 -22 -3 -5 0
-10 -7 -10 -13 0 -7 -14 -39 -30 -71 -17 -31 -28 -62 -25 -67 4 -6 1 -9 -5 -8
-6 2 -19 -15 -28 -37 -9 -22 -21 -47 -27 -55 -5 -8 -11 -23 -12 -33 -2 -10 -9
-28 -17 -40 -8 -12 -17 -33 -21 -47 -33 -117 -132 -353 -158 -375 -11 -10 -68
-122 -106 -210 -10 -22 -32 -70 -51 -107 -18 -37 -30 -74 -27 -82 3 -8 -1 -13
-10 -12 -8 0 -20 -8 -26 -19 -6 -11 -19 -32 -29 -47 -10 -15 -18 -31 -18 -36
0 -5 -29 -53 -65 -108 -36 -54 -65 -103 -65 -108 0 -5 -6 -17 -14 -25 -17 -20
-85 -156 -166 -333 -34 -76 -67 -138 -72 -138 -16 0 -78 -52 -78 -65 0 -7 -6
-15 -14 -18 -7 -3 -19 -28 -26 -56 -18 -76 -29 -71 -13 6 14 69 11 95 -6 49
-6 -14 -17 -26 -26 -26 -8 0 -15 -4 -15 -10 0 -5 6 -10 14 -10 20 0 8 -48 -15
-61 -22 -12 -26 -34 -4 -25 19 7 19 -1 0 -20 -13 -14 -15 -196 -15 -1525 l0
-1509 890 0 c490 0 890 3 890 6 0 2 -10 8 -23 13 -46 18 -244 173 -367 288
-53 49 -56 54 -58 105 -1 29 -7 76 -12 103 -6 28 -13 61 -16 74 -3 13 -7 21
-9 19 -3 -2 2 -42 10 -89 8 -46 15 -97 15 -113 l0 -29 -25 23 c-18 17 -25 34
-25 59 0 66 -21 164 -56 269 -20 57 -33 106 -30 109 3 3 10 -5 15 -18 22 -56
90 -193 91 -181 0 17 -40 112 -112 262 -60 125 -62 135 -59 244 1 22 22 -12
87 -140 78 -155 145 -257 158 -243 3 3 -3 15 -14 27 -11 12 -20 24 -20 27 0 2
-20 37 -45 77 -25 40 -45 77 -45 82 0 5 -6 17 -13 25 -38 45 -109 276 -79 258
4 -3 7 7 8 21 0 15 4 45 9 66 6 28 5 37 -4 32 -6 -4 -11 -15 -11 -24 0 -26
-21 -95 -27 -88 -3 2 0 27 6 53 6 26 13 71 15 98 4 47 27 179 44 255 l9 35 11
-53 c7 -29 17 -85 23 -125 22 -147 90 -495 119 -602 16 -60 26 -113 24 -117
-3 -4 2 -8 10 -8 9 0 16 7 16 16 0 13 3 14 15 4 13 -11 13 -6 0 36 -8 27 -15
86 -16 132 -2 45 -7 82 -11 82 -5 0 -6 10 -3 23 7 25 0 71 -39 257 -31 149
-44 205 -58 243 -12 30 7 121 23 111 5 -3 9 3 10 13 2 28 17 -26 18 -64 1 -17
5 -34 10 -37 5 -4 8 2 6 11 -2 10 -6 56 -9 101 -5 69 -3 83 8 79 8 -3 16 2 19
13 3 13 0 17 -9 13 -17 -6 -18 9 -2 25 9 9 9 12 0 12 -7 0 -12 7 -12 15 0 8
-4 15 -9 15 -5 0 -12 8 -15 18 -2 9 -2 -1 1 -23 6 -44 6 -43 4 -67 -2 -25 -39
-33 -61 -13 -11 10 -19 25 -18 34 1 9 0 32 -1 51 -3 33 -3 33 -11 10 -5 -15
-6 6 -3 50 6 84 12 103 14 44 1 -34 2 -36 9 -14 5 17 8 19 9 8 1 -10 6 -18 11
-18 6 0 15 -10 20 -22 5 -13 9 -17 9 -9 1 7 -9 29 -20 48 -18 29 -20 43 -15
101 4 37 7 90 7 117 0 40 2 45 9 25 l8 -25 1 25 c1 21 3 22 11 8 10 -16 6 -79
-5 -98 -3 -6 -1 -10 5 -10 6 0 9 -4 5 -9 -3 -5 -2 -12 3 -15 5 -3 9 -25 9 -50
0 -25 8 -54 18 -68 16 -22 17 -22 11 -1 -4 11 -11 45 -16 75 -5 29 -12 64 -16
77 -5 16 -3 22 3 18 7 -5 9 13 6 53 -4 45 -1 64 12 82 l17 23 -6 -30 c-4 -16
-9 -38 -12 -47 -3 -10 -1 -18 5 -18 6 0 11 12 11 28 0 21 2 24 10 12 9 -14 8
-50 -4 -305 -3 -53 -1 -71 4 -52 5 16 11 79 15 140 3 62 10 153 15 202 5 50
10 99 11 110 2 22 7 -3 39 -175 12 -63 22 -128 23 -145 1 -16 5 -32 9 -35 4
-3 10 -25 14 -48 6 -39 4 -44 -15 -49 -11 -3 -21 -9 -21 -14 0 -4 -16 -13 -35
-20 -22 -8 -35 -20 -35 -31 0 -10 5 -18 10 -18 6 0 10 4 10 9 0 9 42 29 78 36
12 2 26 6 31 9 5 3 14 -8 20 -24 5 -17 17 -30 26 -30 12 0 14 -4 5 -19 -6 -13
-7 -36 0 -72 6 -28 10 -54 11 -58 0 -3 4 3 8 14 6 14 10 -1 16 -51 4 -40 20
-123 36 -185 31 -126 31 -106 -1 41 -11 52 -23 132 -27 178 -3 45 -10 85 -15
88 -4 3 -8 -5 -9 -18 -1 -16 -3 -13 -9 12 -5 21 -5 37 1 41 7 4 7 18 1 40 -6
19 -11 26 -11 17 -1 -25 -21 -23 -21 2 0 11 4 20 9 20 5 0 11 6 14 14 4 11 -1
13 -19 10 -19 -4 -12 7 39 58 35 35 49 51 32 36 -30 -27 -61 -40 -37 -16 7 7
12 16 12 22 0 5 -6 1 -14 -9 -8 -11 -12 -23 -10 -27 2 -4 0 -9 -5 -12 -20 -13
-69 168 -73 270 -2 38 -7 72 -12 75 -12 9 4 309 17 309 6 0 8 -34 4 -97 -3
-65 -2 -85 3 -58 5 22 9 56 9 76 1 20 4 39 8 43 4 3 25 -13 47 -36 33 -35 42
-55 52 -108 12 -61 13 -62 13 -20 -1 25 0 48 0 52 1 4 20 -14 44 -40 75 -83
73 -75 37 -139 -20 -34 -26 -52 -16 -44 10 8 26 32 37 53 11 22 25 37 32 35
26 -9 -10 -126 -64 -204 -17 -24 -29 -47 -26 -49 9 -9 94 135 107 181 14 51
19 53 45 25 28 -31 86 -64 94 -54 6 9 91 46 91 40 0 -15 -24 -66 -31 -66 -5 0
-9 -8 -9 -18 0 -9 -9 -42 -20 -72 -11 -30 -20 -56 -20 -57 0 -2 -5 -3 -11 -3
-6 0 -25 -12 -43 -27 -17 -15 -24 -24 -16 -21 8 3 23 9 34 14 16 6 17 4 11
-17 -4 -13 -14 -36 -21 -51 -8 -15 -14 -33 -14 -40 0 -20 51 73 57 104 3 16 9
28 14 28 5 0 9 7 9 15 0 18 16 20 23 3 3 -8 6 -6 6 5 1 9 5 17 11 17 5 0 6 -8
3 -17 -6 -16 -5 -16 10 -5 13 11 14 17 4 33 -14 22 -23 24 -30 7 -3 -8 -6 -5
-6 5 -1 26 16 55 41 68 22 12 23 4 3 -45 -8 -18 -7 -18 18 -1 21 13 27 14 27
4 0 -8 -4 -21 -10 -29 -5 -9 -5 -17 1 -20 5 -4 1 -17 -11 -30 -11 -13 -22 -33
-25 -44 -2 -12 -14 -64 -26 -116 -28 -117 -28 -242 0 -358 11 -45 22 -86 26
-92 12 -20 21 -10 17 20 -2 18 0 30 7 30 13 0 25 -44 18 -65 -4 -8 0 -27 8
-42 8 -15 15 -39 15 -53 0 -14 4 -41 10 -60 8 -31 8 -33 -4 -17 -13 16 -14 14
-9 -25 3 -24 9 -47 13 -53 5 -5 14 -38 20 -71 10 -50 9 -87 -4 -205 -20 -169
-54 -398 -62 -411 -4 -5 -8 -26 -10 -46 -2 -20 -10 -77 -17 -127 -8 -49 -10
-92 -6 -93 12 -5 11 -55 -1 -88 -15 -40 -21 -24 -11 29 4 26 5 47 1 47 -5 0
-11 -27 -15 -60 -6 -53 -11 -63 -51 -100 -24 -22 -44 -43 -44 -45 0 -3 135 -5
300 -5 l300 0 0 26 c0 14 -4 23 -8 20 -5 -3 -9 0 -9 7 -1 23 -12 92 -18 113
-5 15 -1 23 11 28 9 3 18 5 20 4 7 -8 10 -117 2 -112 -4 3 -8 0 -8 -5 0 -6 4
-11 10 -11 5 0 9 -3 9 -7 -1 -5 -1 -20 0 -35 l1 -28 345 0 345 0 1 28 c0 15 4
117 8 227 l7 201 32 47 c18 25 49 59 70 74 20 15 39 30 42 33 3 3 37 29 75 57
39 28 81 63 94 77 49 52 47 35 -9 -89 -15 -33 -30 -71 -35 -85 -6 -21 -3 -20
19 9 14 19 26 41 26 48 0 22 30 74 39 68 5 -3 7 5 3 17 -3 13 -1 19 5 15 6 -4
21 5 33 18 13 14 31 25 40 25 9 0 25 7 36 15 30 23 66 18 144 -19 106 -51 103
-46 68 -128 -35 -83 -74 -146 -266 -428 l-143 -210 135 0 c156 0 129 -17 229
146 34 55 68 109 74 120 25 38 78 140 101 194 18 43 22 67 19 110 -11 114 -28
193 -61 276 -31 76 -33 84 -15 79 21 -7 159 62 159 80 0 5 -19 51 -42 102 -30
64 -48 92 -60 93 -32 0 -142 -42 -177 -68 -36 -26 -32 -27 -118 5 -6 3 -24 -9
-38 -26 l-27 -30 -42 19 c-22 11 -79 31 -126 45 l-85 26 -2 57 c-2 31 -4 71
-5 87 -3 30 -2 30 42 28 l45 -3 -44 15 c-24 7 -47 19 -51 26 -17 27 12 159 35
159 8 0 18 8 23 17 5 9 20 17 33 19 13 1 34 5 47 9 21 7 22 4 24 -46 2 -72 2
-79 -5 -116 -3 -18 -1 -35 4 -39 5 -3 9 8 9 25 0 16 6 36 13 43 6 7 21 30 31
51 27 52 32 39 6 -20 -22 -52 -28 -98 -16 -125 7 -15 2 -18 -30 -19 l-39 -1
30 -10 c17 -6 50 -29 75 -53 25 -23 65 -49 90 -58 56 -21 60 -21 60 -2 0 8 5
15 10 15 6 0 13 8 17 18 3 9 13 25 21 35 8 9 12 20 8 24 -4 4 -10 3 -14 -2
-11 -16 -58 -11 -53 6 2 8 6 22 9 33 3 13 1 17 -9 14 -20 -7 -38 21 -39 58 0
17 -7 37 -15 44 -18 15 -21 71 -3 67 13 -2 15 38 3 66 -10 23 -8 24 46 32 36
5 49 3 63 -10 13 -14 20 -15 31 -5 8 7 22 10 30 6 9 -3 15 0 15 8 0 14 125 25
324 27 109 2 110 2 51 12 -33 5 -128 9 -212 7 -177 -3 -305 7 -280 22 15 8 14
12 -13 35 -30 24 -56 25 -32 1 20 -20 14 -30 -15 -26 -16 2 -26 8 -25 13 2 6
9 9 15 7 7 -2 9 0 5 4 -4 4 -2 14 4 22 10 11 9 17 -5 27 -9 7 -17 17 -17 22 0
6 -15 30 -32 54 -18 25 -37 52 -43 60 -5 9 -23 36 -39 60 -28 42 -48 93 -67
169 -4 19 -17 71 -27 115 -11 44 -37 139 -59 210 -22 72 -43 139 -46 150 -3
11 -30 88 -60 171 -31 86 -59 186 -67 235 -7 46 -16 89 -20 94 -27 37 -14 170
25 260 l14 30 1 -50 1 -50 20 63 c15 47 24 62 39 62 10 0 22 5 25 10 3 6 10
10 14 10 15 0 51 -38 51 -54 0 -9 6 -16 14 -16 28 0 27 -20 -1 -31 l-28 -12
42 -13 c23 -6 72 -15 110 -19 37 -4 112 -13 165 -21 132 -19 134 -19 150 16
16 36 30 38 47 6 15 -27 8 -46 -17 -47 -12 0 59 -28 76 -29 1 0 2 11 2 25 0
23 -28 76 -62 115 -11 13 -61 42 -78 44 -3 1 -12 5 -20 11 -25 15 -200 10
-250 -8 -80 -29 -110 -22 -181 42 -51 45 -56 76 -30 175 40 151 56 191 98 253
24 34 43 66 43 70 0 4 18 28 40 52 22 24 40 45 40 47 0 10 86 95 101 99 11 4
17 10 14 14 -6 11 60 97 81 105 9 4 14 9 11 12 -6 6 106 84 120 84 4 0 18 11
32 24 24 23 89 46 189 67 23 4 51 13 61 19 25 13 64 13 56 0 -3 -5 -16 -10
-28 -11 l-22 0 22 -9 c24 -10 93 -2 93 10 0 4 11 11 25 14 14 4 25 11 25 16 0
6 11 10 25 10 35 0 22 27 -18 36 l-32 7 33 9 c28 7 31 11 22 28 -5 10 -19 22
-30 25 -26 8 -26 25 0 25 11 0 20 6 20 14 0 8 -9 18 -20 21 -11 3 -20 11 -20
17 0 5 9 12 20 15 25 7 25 8 -4 46 -39 53 -41 60 -17 52 32 -10 42 1 30 33 -6
15 -12 52 -14 82 -4 47 -3 53 9 38 7 -10 19 -18 26 -18 8 0 10 6 5 18 -13 30
-15 71 -4 77 12 8 41 -14 33 -26 -3 -5 4 -9 15 -9 13 0 21 -8 24 -27 8 -46 3
-89 -12 -106 -10 -13 -11 -20 -2 -31 6 -7 9 -20 5 -29 -3 -8 -1 -18 5 -22 6
-3 11 -15 11 -26 0 -14 7 -19 28 -20 l27 -1 -29 -10 c-22 -8 -31 -8 -34 1 -2
6 -9 11 -15 11 -8 0 -8 -3 0 -11 6 -6 10 -17 8 -23 -3 -6 10 -20 27 -31 27
-17 31 -26 34 -69 3 -58 14 -67 74 -63 38 2 46 -1 55 -21 5 -12 18 -25 27 -28
10 -3 30 -16 46 -28 15 -13 50 -34 77 -47 95 -46 242 -194 299 -301 21 -40 58
-104 82 -143 110 -179 175 -513 153 -789 -17 -215 -108 -566 -190 -733 -22
-45 -69 -123 -105 -173 -35 -50 -64 -94 -64 -97 0 -3 16 -21 35 -40 20 -19 91
-108 158 -196 66 -89 139 -181 160 -204 l39 -43 -66 -31 c-36 -17 -66 -32 -66
-34 0 -7 56 13 98 34 l42 21 20 -32 c11 -18 20 -39 20 -45 0 -14 74 -54 135
-73 22 -7 59 -23 82 -36 40 -23 45 -24 72 -10 16 9 62 25 102 36 41 12 90 26
109 32 19 6 87 8 155 6 113 -4 123 -6 177 -37 l58 -33 -6 34 c-3 18 -21 83
-40 143 -34 109 -45 225 -22 225 6 0 7 8 3 18 -7 20 0 12 38 -40 30 -41 35
-57 12 -38 -21 18 -19 -2 3 -21 9 -9 28 -29 41 -45 l23 -29 -5 43 c-3 24 -13
52 -23 63 -15 16 -16 22 -5 28 10 7 6 14 -18 32 -36 26 -40 40 -10 32 12 -3
30 -20 40 -37 13 -22 19 -26 19 -13 0 10 -12 29 -27 43 -108 97 -142 154 -114
188 8 10 8 21 1 41 -15 39 -8 40 27 2 17 -17 49 -77 71 -132 23 -55 41 -90 42
-78 0 12 -9 42 -20 68 -25 57 -25 62 -2 42 17 -16 18 -14 20 36 1 47 -3 56
-35 89 -22 22 -32 41 -28 49 5 8 4 10 -3 5 -7 -4 -12 -1 -12 9 0 12 -6 15 -22
10 -16 -6 -20 -4 -15 7 3 8 -9 34 -25 59 -17 24 -50 85 -75 134 -24 50 -41 79
-37 65 9 -34 63 -160 82 -188 8 -12 12 -25 9 -28 -6 -7 -137 256 -137 275 0 7
-4 10 -9 7 -5 -4 -26 16 -46 44 -35 47 -36 53 -30 101 4 28 9 48 11 46 3 -2
17 -40 33 -85 15 -44 35 -88 44 -97 10 -9 17 -21 17 -27 0 -6 2 -9 5 -6 3 3
-5 27 -19 54 -42 85 -84 225 -55 184 9 -12 9 -11 3 5 -12 31 -4 142 12 182 9
21 13 50 10 72 -3 20 -8 79 -11 131 -5 98 -29 272 -45 325 -4 17 -14 55 -20
85 -7 30 -21 80 -32 110 -10 30 -20 64 -22 75 -2 11 -20 49 -39 85 -20 36 -45
82 -55 103 l-19 38 -27 -31 c-23 -28 -26 -29 -26 -11 0 12 6 21 14 21 22 0 28
34 12 71 -20 47 -46 138 -46 160 0 11 -4 27 -9 37 -16 32 -32 92 -27 101 3 4
-3 16 -13 25 -10 9 -24 35 -31 59 -8 23 -23 52 -35 64 -29 31 -38 43 -60 88
-31 62 -115 184 -147 213 -16 15 -45 45 -66 66 -35 38 -54 56 -147 145 -44 43
-187 127 -231 136 -22 5 -25 4 -14 -4 9 -7 10 -11 3 -11 -6 0 -15 5 -18 10 -3
6 -17 10 -31 10 -13 0 -24 5 -24 10 0 6 -11 10 -24 10 -14 0 -27 3 -30 8 -9
14 -238 4 -284 -14 -41 -15 -44 -15 -56 1 -7 10 -18 15 -24 11 -6 -3 -13 -2
-16 3 -4 5 -2 12 4 16 23 14 8 26 -25 19 -40 -7 -65 7 -65 37 0 15 -8 19 -37
21 -38 1 -38 1 7 7 42 6 124 0 215 -15 36 -6 38 -5 26 10 -8 10 -29 16 -52 16
-21 0 -40 4 -43 8 -3 5 -20 7 -38 5 -27 -3 -29 -1 -13 6 15 7 7 10 -35 10 -39
1 -51 -2 -40 -9 11 -7 -4 -10 -50 -9 -62 0 -64 0 -40 14 l25 15 -30 -6 c-16
-3 -49 -12 -73 -20 -49 -16 -284 -64 -313 -64 -10 0 -19 4 -19 10 0 5 14 7 33
3 47 -8 24 10 -51 42 -93 38 -275 129 -319 159 -21 14 -45 26 -54 26 -8 0 -33
16 -55 35 -21 19 -44 35 -50 35 -6 0 -21 9 -34 20 -28 25 -47 26 -29 3 13 -17
12 -17 -11 -2 -14 9 -35 22 -47 30 -13 8 -23 18 -23 23 0 4 6 3 14 -3 16 -13
87 -21 80 -9 -3 4 -13 8 -24 8 -21 0 -136 55 -164 79 -16 13 -18 13 -11 1 8
-13 7 -13 -9 0 -10 8 -33 13 -50 12 -24 -2 -28 0 -16 7 14 10 13 12 -10 15 -6
0 -14 6 -18 12 -4 5 -43 16 -87 23 -70 11 -85 10 -117 -3 -23 -10 -38 -12 -38
-6 0 7 -6 7 -18 1 -27 -15 -72 -1 -82 25 -13 33 -40 44 -120 47 -44 2 -74 8
-79 16 -4 6 -33 15 -64 18 -31 3 -54 10 -51 14 6 11 -10 12 -20 2z m-109 -39
c-3 -3 -12 -4 -19 -1 -8 3 -5 6 6 6 11 1 17 -2 13 -5z m-247 -28 c0 -2 -7 -6
-15 -10 -8 -3 -15 -1 -15 4 0 6 7 10 15 10 8 0 15 -2 15 -4z m50 -6 c0 -5 -4
-10 -9 -10 -6 0 -13 5 -16 10 -3 6 1 10 9 10 9 0 16 -4 16 -10z m605 0 c3 -5
-1 -10 -9 -10 -9 0 -16 5 -16 10 0 6 4 10 9 10 6 0 13 -4 16 -10z m-710 -9
c-6 -5 -28 -14 -50 -21 -22 -7 -49 -19 -60 -26 -23 -16 -39 -18 -30 -4 10 16
99 54 140 59 6 1 6 -2 0 -8z m925 -35 c0 -3 -4 -8 -10 -11 -5 -3 -10 -1 -10 4
0 6 5 11 10 11 6 0 10 -2 10 -4z m40 -20 c0 -2 -9 -6 -20 -9 -11 -3 -18 -1
-14 4 5 9 34 13 34 5z m86 -14 c11 -10 26 -16 33 -14 8 3 11 0 7 -7 -9 -15
-22 -14 -38 2 -7 7 -22 18 -33 25 -15 9 -16 11 -4 12 8 0 24 -8 35 -18z
m-1251 -33 c-22 -12 -48 -28 -58 -37 -18 -16 -31 -14 -19 3 10 15 85 55 102
55 8 0 -3 -9 -25 -21z m950 -66 c-18 -70 -37 -160 -37 -175 1 -10 -3 -18 -9
-18 -5 0 -9 -9 -9 -19 0 -11 -4 -22 -10 -26 -5 -3 -7 -12 -4 -20 4 -8 -1 -18
-10 -21 -9 -3 -15 -14 -14 -23 2 -10 -5 -17 -19 -19 -13 -2 -23 -9 -23 -17 0
-14 -21 -25 -48 -25 -11 0 -18 -9 -18 -25 -2 -27 6 -31 23 -14 18 18 30 3 25
-31 -5 -34 13 -42 23 -10 9 28 40 10 50 -27 3 -16 19 -48 34 -74 16 -25 32
-55 35 -67 4 -12 12 -22 17 -22 5 0 9 -8 9 -17 0 -10 9 -29 20 -43 11 -14 20
-29 20 -34 0 -5 9 -28 19 -50 17 -35 36 -91 81 -231 5 -16 12 -50 16 -75 4
-25 12 -56 19 -70 7 -14 15 -83 19 -153 4 -70 9 -136 12 -145 4 -10 2 -13 -3
-7 -4 6 -21 11 -38 12 -77 5 -270 40 -296 53 -25 13 -62 1 -49 -15 8 -9 8 -15
0 -20 -25 -16 -5 -25 57 -25 78 0 227 -41 268 -74 28 -22 28 -23 14 -66 -8
-24 -26 -52 -41 -64 -28 -20 -29 -20 -100 -1 -39 10 -99 18 -132 18 -41 0 -54
3 -41 9 12 5 -16 7 -70 4 -60 -2 -103 -10 -127 -22 -47 -22 -50 -36 -5 -23 17
5 57 7 87 3 59 -7 199 -42 215 -54 10 -7 108 -40 120 -40 4 0 4 7 1 16 -5 12
-2 15 10 10 8 -3 24 -6 35 -6 13 0 19 -7 20 -22 0 -22 1 -22 10 -3 7 16 8 14
4 -10 -19 -123 -30 -156 -70 -204 -18 -21 -24 -37 -20 -51 3 -11 2 -28 -4 -37
-6 -11 -11 -13 -11 -5 0 7 -4 11 -10 7 -5 -3 -7 -11 -4 -18 2 -7 -6 -26 -20
-42 -14 -16 -22 -33 -19 -39 4 -5 -1 -7 -12 -3 -14 6 -16 3 -12 -13 3 -12 0
-20 -8 -20 -7 0 -18 -13 -25 -30 -7 -16 -16 -30 -20 -30 -10 0 -31 -48 -40
-90 -12 -55 -58 -225 -69 -251 -36 -93 -44 -107 -59 -102 -10 4 -13 1 -10 -8
6 -17 1 -22 -89 -117 -40 -41 -73 -79 -73 -83 0 -11 -160 -125 -187 -133 -13
-4 -23 -12 -23 -17 0 -12 -73 -11 -145 2 -129 24 -218 93 -302 238 -31 53 -68
114 -82 136 -41 64 -51 86 -44 98 3 6 1 7 -5 3 -7 -4 -12 -4 -13 1 -3 44 -11
67 -28 89 -28 36 -26 48 4 28 35 -23 44 -9 11 17 -15 12 -25 26 -23 32 2 7 -6
20 -17 30 -21 18 -21 18 9 12 l30 -7 -25 28 c-14 16 -31 34 -37 42 -10 10 -9
18 4 38 13 20 14 30 4 50 -6 14 -11 32 -11 40 0 9 -6 30 -14 47 -52 118 -61
193 -46 363 14 151 39 253 68 270 26 17 160 16 212 -1 25 -8 78 -21 117 -30
71 -14 111 -30 125 -50 15 -21 18 5 4 33 -29 56 -149 142 -197 142 -10 0 -21
5 -24 10 -3 6 -48 10 -99 10 -120 0 -130 7 -124 84 3 34 11 61 19 67 29 18
152 10 233 -17 85 -27 106 -26 106 6 0 22 -39 43 -77 41 -13 -1 -33 -1 -45 -2
-13 0 -63 8 -113 19 -85 18 -90 20 -87 43 3 22 56 164 87 234 7 17 23 53 35
82 13 29 29 54 36 57 8 3 14 12 14 21 0 8 4 15 9 15 5 0 25 16 44 35 23 23 31
37 24 44 -8 8 -1 13 21 17 18 4 32 10 32 14 0 13 45 60 58 60 7 0 12 9 12 19
0 11 9 23 21 26 12 4 30 16 40 26 10 10 29 19 42 19 13 0 28 5 34 11 14 14
203 31 273 25 30 -3 100 -2 155 1 95 7 98 7 55 16 l-45 10 39 11 c36 10 62 36
37 36 -6 0 -11 7 -11 15 0 8 8 15 18 15 10 0 24 9 32 20 10 14 16 16 22 7 6
-8 10 -5 14 11 5 18 9 21 16 10 6 -9 8 1 5 29 -5 38 -3 42 15 40 12 -1 23 4
26 12 3 8 0 11 -7 7 -6 -4 -11 -5 -11 -2 0 2 -3 12 -7 22 -5 14 -3 16 11 11
15 -6 17 -3 10 25 -6 30 -5 32 11 18 16 -14 17 -12 11 18 -5 19 -4 32 2 32 6
0 13 13 17 29 3 16 13 35 21 42 8 6 14 18 14 25 0 8 3 14 6 14 3 0 3 -12 -1
-27z m-1055 2 c-7 -8 -20 -15 -29 -15 -11 0 -8 5 9 14 33 19 35 19 20 1z
m1580 -11 c0 -2 -9 0 -20 6 -11 6 -20 13 -20 16 0 2 9 0 20 -6 11 -6 20 -13
20 -16z m-1123 -30 c-3 -3 -12 -4 -19 -1 -8 3 -5 6 6 6 11 1 17 -2 13 -5z
m-117 -14 c19 -6 14 -8 -22 -7 -26 1 -42 5 -35 9 14 9 23 9 57 -2z m-192 -27
c-16 -2 -40 -2 -55 0 -16 2 -3 4 27 4 30 0 43 -2 28 -4z m-232 -54 c-32 -17
-60 -28 -63 -26 -5 6 97 56 112 56 6 0 -16 -14 -49 -30z m-116 -55 c0 -8 -32
-33 -42 -34 -10 0 24 38 35 39 4 1 7 -2 7 -5z m2059 -41 c31 -38 17 -41 -21
-4 -23 22 -27 31 -16 31 9 0 26 -12 37 -27z m341 -130 c3 -3 -6 -2 -20 2 -14
4 -27 10 -30 14 -3 3 -27 17 -53 31 -27 14 -51 29 -54 34 -6 8 146 -70 157
-81z m-192 42 c22 -19 41 -32 44 -30 9 9 118 -46 112 -57 -4 -6 -9 -6 -13 -2
-8 12 -101 55 -101 47 0 -3 8 -12 18 -20 16 -13 15 -13 -3 -4 -32 17 -121 101
-108 101 7 0 30 -16 51 -35z m572 -32 c-8 -3 -24 -10 -35 -15 -20 -9 -20 -9
-1 6 11 9 27 16 35 15 14 0 14 -1 1 -6z m25 -13 c-3 -5 0 -10 7 -10 22 0 121
-79 100 -80 -7 0 -18 5 -25 10 -7 6 -34 25 -60 42 -35 22 -45 33 -35 39 17 11
20 11 13 -1z m-90 -8 c-6 -5 -41 -17 -78 -27 -37 -9 -67 -19 -65 -20 2 -2 33
0 71 4 37 4 67 3 67 -1 0 -5 11 -6 24 -2 13 3 27 1 30 -5 5 -7 -2 -11 -16 -11
-18 0 -20 -2 -8 -10 13 -8 13 -9 0 -14 -8 -2 -22 -7 -30 -9 -8 -3 23 -6 70 -6
59 -1 80 -4 70 -11 -8 -5 -37 -10 -65 -11 -69 -1 -107 -17 -43 -18 26 -1 50
-6 54 -12 8 -13 -162 -4 -200 11 -18 7 -14 10 27 20 26 7 46 14 44 16 -2 2
-47 8 -101 14 -84 9 -102 8 -134 -7 -58 -27 -59 -27 -28 1 16 14 44 28 62 32
19 3 37 10 40 15 3 5 15 9 28 9 12 0 53 11 92 24 72 26 105 32 89 18z m-1572
-19 c-7 -2 -19 -2 -25 0 -7 3 -2 5 12 5 14 0 19 -2 13 -5z m-1299 -15 c-4 -7
-19 -31 -34 -53 -33 -50 -60 -104 -60 -122 0 -7 -5 -13 -10 -13 -6 0 -18 -17
-26 -37 -9 -21 -24 -56 -34 -78 -9 -22 -23 -55 -31 -74 -7 -19 -15 -29 -17
-23 -2 6 11 46 28 89 46 115 54 133 62 133 5 0 8 7 8 16 0 8 11 30 25 48 14
18 25 37 25 41 0 14 52 85 62 85 5 0 6 -6 2 -12z m2526 -102 c0 -2 -7 -7 -16
-10 -8 -3 -12 -2 -9 4 6 10 25 14 25 6z m200 -36 c0 -5 -12 -10 -27 -9 l-28 1
25 8 c14 4 26 8 28 9 1 1 2 -3 2 -9z m1020 -410 c12 -8 10 -10 -10 -9 -14 1
-36 5 -50 9 -23 7 -22 8 10 9 19 0 42 -4 50 -9z m210 -10 l25 -8 -25 -1 c-14
0 -32 4 -40 9 -13 9 -13 10 0 9 8 -1 26 -5 40 -9z m85 -190 c2 -4 -7 -5 -20
-2 -14 2 -25 8 -25 12 0 10 38 1 45 -10z m-4439 -136 c-3 -9 -6 -18 -6 -20 0
-2 -4 -4 -9 -4 -5 0 -7 9 -4 20 3 11 10 20 15 20 6 0 7 -7 4 -16z m30 -60 c-4
-14 -9 -57 -12 -96 -4 -47 -14 -88 -29 -117 -28 -55 -67 -108 -79 -109 -10 -1
-35 -53 -42 -87 -7 -35 -35 -86 -45 -80 -5 4 -8 -2 -7 -12 3 -34 -2 -54 -11
-49 -5 3 -12 -6 -15 -19 -4 -16 -11 -23 -18 -19 -8 5 -9 2 -5 -10 7 -18 -42
-128 -54 -121 -4 3 -10 -2 -13 -11 -4 -9 -9 -14 -12 -11 -6 6 8 54 38 130 11
27 17 52 14 55 -3 3 -6 0 -6 -7 0 -7 -5 -9 -12 -5 -7 4 -8 3 -4 -4 4 -7 2 -12
-4 -12 -7 0 -10 -7 -6 -15 3 -8 3 -22 -1 -31 -5 -13 -7 -13 -15 -2 -5 8 -6 3
-2 -14 4 -17 2 -28 -5 -28 -6 0 -8 -7 -5 -15 4 -8 -1 -17 -10 -21 -9 -3 -16
-10 -16 -16 0 -5 5 -6 11 -2 8 4 7 0 -1 -15 -6 -12 -17 -24 -25 -27 -8 -3 -12
-13 -9 -22 2 -9 -2 -5 -9 11 -14 28 -27 27 -27 -3 0 -9 -9 -25 -20 -35 -11
-10 -20 -24 -20 -32 0 -8 -5 -11 -11 -7 -6 3 -15 0 -20 -7 -37 -59 31 142 80
235 52 100 57 107 66 98 5 -4 5 -2 1 5 -4 7 14 44 41 84 39 58 49 68 51 51 2
-12 8 -20 13 -17 15 10 10 -6 -16 -51 -20 -34 -23 -47 -15 -66 l10 -23 -2 25
c-2 32 29 93 44 84 7 -5 9 0 6 14 -4 15 -2 22 8 22 8 0 11 6 7 17 -5 11 -3 14
6 8 10 -5 11 -2 7 13 -5 15 3 31 29 61 20 22 35 46 32 53 -3 8 -6 6 -6 -5 -1
-10 -6 -15 -12 -12 -7 5 -5 15 6 31 9 14 13 30 9 36 -4 7 -3 8 5 4 6 -4 9 -15
7 -24 -3 -10 -1 -24 4 -32 6 -9 10 -10 10 -3 0 6 5 24 11 40 6 15 10 29 10 31
-1 1 6 16 14 32 9 17 13 35 9 41 -3 6 3 17 14 25 11 7 28 36 38 64 19 53 30
67 20 24z m-118 -116 c-35 -67 -65 -125 -68 -128 -12 -11 -33 -66 -32 -80 1
-11 0 -12 -4 -2 -5 10 -12 6 -25 -15 -10 -15 -19 -22 -19 -15 0 6 -4 12 -10
12 -5 0 -10 -5 -10 -12 0 -12 -79 -139 -93 -149 -5 -3 -9 -12 -11 -20 -1 -8
-23 -50 -49 -94 -26 -44 -47 -85 -47 -92 0 -7 -4 -13 -10 -13 -5 0 -7 -6 -4
-13 6 -17 -24 -88 -43 -102 -8 -6 -15 -17 -17 -25 -8 -39 -19 -70 -26 -70 -4
0 -12 -10 -18 -22 -9 -19 -11 -20 -11 -5 -2 41 177 400 246 494 13 17 23 34
23 38 0 3 21 36 46 73 37 54 45 61 40 37 -5 -26 -5 -27 5 -10 7 11 21 30 31
42 11 12 17 26 13 32 -3 6 -2 11 3 11 5 0 20 27 33 60 13 33 30 60 37 60 8 0
12 6 9 13 -3 7 4 24 14 38 10 13 19 29 19 34 0 14 31 57 37 52 2 -3 -24 -61
-59 -129z m-18 62 c-8 -27 -40 -82 -40 -68 0 9 41 98 45 98 2 0 0 -13 -5 -30z
m4954 -14 c-3 -9 -10 -13 -15 -10 -5 3 -3 11 4 19 15 16 19 13 11 -9z m-5007
-109 c-6 -15 -15 -27 -20 -27 -4 0 0 14 8 31 20 37 30 34 12 -4z m163 -65 c0
-5 -9 -20 -21 -33 -18 -21 -69 -113 -69 -126 0 -3 8 1 17 8 14 12 14 10 -1
-13 -20 -31 -29 -36 -20 -13 4 8 3 15 0 15 -8 0 -51 -87 -87 -177 -26 -68 -49
-110 -49 -91 0 27 124 302 147 326 7 7 13 18 13 23 0 6 13 24 30 42 16 18 30
35 30 40 0 4 2 7 5 7 3 0 5 -4 5 -8z m4860 -34 c0 -5 -4 -8 -10 -8 -5 0 -10
10 -10 23 0 18 2 19 10 7 5 -8 10 -18 10 -22z m-4884 -44 c-10 -14 -20 -23
-23 -21 -6 6 30 57 36 51 2 -2 -4 -15 -13 -30z m4894 -11 c0 -10 3 -29 5 -43
5 -22 3 -21 -9 5 -18 36 -20 55 -6 55 6 0 10 -8 10 -17z m179 -268 c22 -60 49
-150 60 -200 24 -103 46 -253 39 -260 -10 -10 -70 15 -88 37 -26 31 -25 34 9
48 23 9 27 15 18 24 -6 7 -21 10 -34 8 -19 -4 -23 0 -23 22 0 19 4 24 16 19
14 -5 14 -3 3 15 -10 16 -10 28 -1 60 24 79 12 144 -38 218 -17 26 -40 70 -51
98 -22 56 -40 155 -31 171 8 13 72 -125 121 -260z m-5255 220 c-4 -8 -8 -15
-10 -15 -2 0 -4 7 -4 15 0 8 4 15 10 15 5 0 7 -7 4 -15z m146 -82 c-18 -32
-44 -78 -57 -103 -29 -56 -48 -75 -38 -40 13 44 114 215 122 206 3 -3 -10 -31
-27 -63z m-30 -111 c-12 -28 -28 -53 -36 -56 -16 -6 -19 10 -4 19 6 4 20 27
32 51 28 61 35 49 8 -14z m1990 -86 c0 -3 -4 -8 -10 -11 -5 -3 -10 -1 -10 4 0
6 5 11 10 11 6 0 10 -2 10 -4z m-1368 -418 c-7 -7 -12 -8 -12 -2 0 14 12 26
19 19 2 -3 -1 -11 -7 -17z m4577 11 c36 -13 40 -25 11 -34 -23 -7 -36 -1 -50
26 -12 22 -5 23 39 8z m-5799 -18 c0 -5 -9 -11 -20 -14 -11 -3 -20 -1 -20 3 0
5 8 11 18 13 9 3 18 5 20 6 1 0 2 -3 2 -8z m5840 -48 c0 -25 -1 -26 -16 -11
-9 9 -13 21 -10 27 13 20 26 11 26 -16z m-5870 14 c0 -2 -12 -14 -27 -28 -24
-22 -23 -11 2 18 9 11 25 17 25 10z m3099 -132 c0 -5 -4 -3 -9 5 -5 8 -9 22
-9 30 0 16 17 -16 18 -35z m2759 1 c3 -13 -1 -17 -14 -14 -11 2 -20 11 -22 22
-3 13 1 17 14 14 11 -2 20 -11 22 -22z m-6 -61 c-5 -28 -22 -24 -22 6 0 10 6
19 14 19 9 0 12 -8 8 -25z m-2765 -17 c-3 -8 -6 -5 -6 6 -1 11 2 17 5 13 3 -3
4 -12 1 -19z m28 -48 c9 -17 15 -46 13 -65 -1 -19 1 -37 5 -41 4 -4 7 3 7 15
0 12 4 19 10 16 6 -3 10 -13 10 -20 0 -8 11 -38 23 -67 36 -81 55 -137 71
-208 8 -36 31 -117 50 -180 20 -63 37 -129 39 -147 1 -17 5 -29 9 -27 8 5 5
-62 -3 -70 -9 -9 -204 345 -214 389 -1 6 -8 24 -14 40 -19 45 -25 101 -13 132
6 16 13 48 16 73 l5 45 -15 -32 c-8 -18 -15 -33 -17 -33 -1 0 -3 47 -5 105 -1
58 0 105 2 105 3 0 12 -14 21 -30z m2109 -99 c10 -16 -5 -41 -25 -41 -17 0
-20 14 -10 48 2 6 31 1 35 -7z m-2137 -113 c-3 -8 -6 -5 -6 6 -1 11 2 17 5 13
3 -3 4 -12 1 -19z m2663 -90 c0 -5 -4 -8 -10 -8 -5 0 -10 10 -10 23 0 18 2 19
10 7 5 -8 10 -18 10 -22z m163 -187 c20 -27 37 -52 37 -56 0 -4 18 -29 41 -56
61 -73 93 -199 51 -199 -21 0 -51 52 -33 58 5 2 -2 24 -16 50 -14 26 -33 61
-41 77 -8 17 -25 44 -37 60 -32 45 -61 115 -47 115 4 -1 24 -23 45 -49z
m-4666 -58 c-3 -10 -5 -4 -5 12 0 17 2 24 5 18 2 -7 2 -21 0 -30z m-60 -55
c-3 -8 -6 -5 -6 6 -1 11 2 17 5 13 3 -3 4 -12 1 -19z m834 -15 c-12 -16 -37
-52 -57 -80 -33 -49 -37 -51 -52 -37 -11 11 -17 13 -20 5 -2 -6 -8 -11 -12
-11 -5 0 -1 19 9 43 10 23 21 40 26 39 4 -2 11 1 14 6 5 8 98 60 109 62 2 0
-6 -12 -17 -27z m-938 -68 c-3 -9 -8 -14 -10 -11 -3 3 -2 9 2 15 9 16 15 13 8
-4z m4911 -31 c3 -8 2 -12 -4 -9 -6 3 -10 10 -10 16 0 14 7 11 14 -7z m-4020
-26 c-10 -18 -19 -28 -21 -21 -3 10 25 53 34 53 2 0 -4 -15 -13 -32z m-867 0
c-3 -8 -6 -5 -6 6 -1 11 2 17 5 13 3 -3 4 -12 1 -19z m5078 -40 c38 -40 26
-37 -22 6 -20 17 -30 36 -20 36 2 0 21 -19 42 -42z m-5088 -25 c-3 -10 -5 -2
-5 17 0 19 2 27 5 18 2 -10 2 -26 0 -35z m250 25 c-3 -8 -6 -5 -6 6 -1 11 2
17 5 13 3 -3 4 -12 1 -19z m4858 -48 c10 -11 16 -20 13 -20 -3 0 -13 9 -23 20
-10 11 -16 20 -13 20 3 0 13 -9 23 -20z m-4841 -25 c5 -22 4 -26 -4 -15 -5 8
-10 24 -10 34 0 26 6 18 14 -19z m4671 -13 c-8 -8 -35 20 -35 37 1 12 5 11 21
-8 11 -13 17 -26 14 -29z m-4918 6 c-3 -8 -6 -5 -6 6 -1 11 2 17 5 13 3 -3 4
-12 1 -19z m-30 -10 c-3 -8 -6 -5 -6 6 -1 11 2 17 5 13 3 -3 4 -12 1 -19z
m-54 0 c-6 -7 -13 -20 -16 -28 -3 -9 -6 -3 -6 13 -1 19 4 27 15 27 12 0 14 -4
7 -12z m364 -95 c-10 -9 -13 -3 -20 37 l-6 35 16 -32 c9 -18 13 -36 10 -40z
m4718 7 c3 -5 1 -10 -4 -10 -6 0 -11 5 -11 10 0 6 2 10 4 10 3 0 8 -4 11 -10z
m-5185 -44 c0 -2 -7 -9 -15 -16 -12 -10 -15 -10 -15 4 0 9 7 16 15 16 8 0 15
-2 15 -4z m17 -31 c0 -8 -9 -15 -21 -15 -20 0 -20 0 0 15 10 8 19 15 20 15 0
0 1 -7 1 -15z m13 -109 c-7 -23 -16 -49 -21 -58 -16 -31 -10 -42 11 -20 11 12
20 35 20 51 0 16 4 32 10 36 5 3 7 12 4 20 -3 8 1 21 9 29 13 13 14 10 12 -30
-2 -25 1 -42 6 -39 12 8 11 -22 -1 -46 -8 -13 -7 -19 0 -19 6 0 4 -7 -5 -16
-15 -15 -17 -15 -29 1 -12 17 -13 17 -18 -3 -4 -16 -2 -19 11 -15 9 3 0 -10
-19 -29 -19 -20 -37 -30 -39 -24 -2 6 -9 15 -15 19 -6 5 0 6 14 2 22 -5 23 -4
9 7 -15 13 -14 21 12 103 16 49 30 96 30 105 1 8 4 4 6 -9 3 -14 0 -43 -7 -65z
m-35 15 c-7 -27 -16 -55 -21 -62 -4 -7 -9 -24 -10 -37 -2 -13 -6 -27 -9 -30
-3 -3 -3 14 0 38 3 24 10 49 15 54 6 6 10 16 10 22 0 16 18 64 24 64 2 0 -2
-22 -9 -49z m-38 7 c-3 -8 -6 -5 -6 6 -1 11 2 17 5 13 3 -3 4 -12 1 -19z m242
-1 c8 -10 7 -17 -1 -25 -19 -19 -28 -14 -28 13 0 27 12 32 29 12z m770 -242
c7 -27 7 -44 -1 -59 -11 -19 -13 -17 -25 29 -16 56 -20 245 -7 266 6 9 11 -25
16 -92 3 -58 11 -123 17 -144z m-742 145 c-13 -34 -26 -59 -29 -54 -11 18 -17
79 -10 89 12 17 57 43 60 36 1 -4 -8 -36 -21 -71z m1340 3 c-3 -10 -5 -4 -5
12 0 17 2 24 5 18 2 -7 2 -21 0 -30z m3632 -78 l0 -20 -9 20 c-5 11 -9 27 -9
35 -1 13 0 13 9 0 5 -8 9 -24 9 -35z m-5124 18 c-2 -10 -4 -22 -4 -26 -1 -5
-5 -5 -11 -2 -5 3 -10 2 -10 -4 0 -5 5 -13 10 -16 13 -8 13 -62 0 -70 -6 -4
-8 7 -5 27 5 30 5 31 -5 9 -6 -13 -8 -32 -4 -43 7 -23 -6 -168 -15 -168 -10 0
-38 105 -46 168 -6 51 -5 53 36 97 45 48 59 55 54 28z m1152 -5 c-3 -8 -6 -5
-6 6 -1 11 2 17 5 13 3 -3 4 -12 1 -19z m30 -75 c-3 -10 -5 -4 -5 12 0 17 2
24 5 18 2 -7 2 -21 0 -30z m-1337 18 c0 -6 -4 -13 -10 -16 -5 -3 -10 1 -10 9
0 9 5 16 10 16 6 0 10 -4 10 -9z m1607 -23 c-3 -8 -6 -5 -6 6 -1 11 2 17 5 13
3 -3 4 -12 1 -19z m3699 -23 c1 -8 -2 -13 -7 -9 -5 3 -9 12 -9 21 0 19 13 9
16 -12z m-5268 -82 c11 -38 23 -95 26 -128 3 -33 8 -76 12 -95 4 -24 0 -41
-10 -55 -16 -19 -16 -19 -10 10 4 19 2 25 -4 17 -12 -18 -70 109 -84 185 -10
55 -9 62 13 96 13 20 27 37 30 37 3 0 15 -30 27 -67z m1550 15 c-3 -18 -13
-73 -23 -121 -21 -99 -35 -99 -35 0 0 49 3 61 14 57 10 -4 16 8 21 45 4 28 11
51 17 51 6 0 8 -14 6 -32z m-1264 -64 c3 -18 9 -57 15 -86 6 -29 17 -87 25
-128 14 -72 31 -246 21 -225 -8 19 -67 320 -70 360 -2 22 -6 67 -9 100 -4 44
-3 54 4 37 6 -13 12 -39 14 -58z m913 54 c-3 -8 -6 -5 -6 6 -1 11 2 17 5 13 3
-3 4 -12 1 -19z m157 -55 c-4 -15 -7 -44 -5 -64 1 -21 -2 -54 -8 -75 -8 -27
-7 -40 0 -45 8 -5 8 -12 0 -25 -10 -18 -10 -18 -11 0 0 11 -3 16 -7 12 -5 -4
-8 -38 -8 -74 0 -48 -4 -66 -12 -65 -16 4 -17 -14 -2 -19 13 -4 3 -48 -11 -48
-25 0 -20 126 11 270 32 148 42 181 52 171 6 -6 6 -22 1 -38z m-144 22 c0 -8
-4 -15 -10 -15 -5 0 -10 7 -10 15 0 8 5 15 10 15 6 0 10 -7 10 -15z m167 -42
c-3 -10 -5 -2 -5 17 0 19 2 27 5 18 2 -10 2 -26 0 -35z m-106 -26 c-8 -8 -11
-4 -11 14 0 33 14 47 18 19 2 -12 -1 -27 -7 -33z m-61 16 c0 -19 -3 -24 -10
-17 -6 6 -8 18 -4 27 9 24 14 21 14 -10z m478 -80 c12 -24 22 -46 21 -50 -4
-26 1 -34 15 -21 8 7 10 16 5 19 -6 3 -6 14 -2 25 6 17 8 17 13 -6 7 -25 -6
-80 -18 -80 -8 0 -39 50 -64 104 -19 41 -22 64 -11 93 6 15 8 13 13 -12 4 -16
16 -49 28 -72z m389 64 c6 2 14 -11 18 -29 10 -45 12 -218 3 -218 -26 0 -73
131 -54 150 8 9 8 14 -1 17 -7 3 -13 11 -13 19 0 8 -7 29 -16 45 -8 17 -12 34
-8 37 4 4 9 1 11 -5 7 -20 23 -15 17 5 -5 14 -2 13 13 -4 10 -11 24 -19 30
-17z m-2024 -47 c3 -11 1 -18 -4 -14 -5 3 -9 12 -9 20 0 20 7 17 13 -6z m1601
-74 c25 -48 46 -95 46 -102 0 -8 -8 -31 -17 -52 -9 -20 -26 -59 -37 -87 -24
-57 -68 -135 -77 -135 -8 0 -37 141 -43 208 -4 42 1 68 23 127 33 85 55 135
57 132 1 -1 23 -42 48 -91z m63 79 c9 -24 -1 -27 -20 -5 -14 17 -15 20 -2 20
9 0 18 -7 22 -15z m113 -66 c0 -5 -4 -9 -10 -9 -5 0 -10 7 -10 16 0 8 5 12 10
9 6 -3 10 -10 10 -16z m300 -44 c0 -36 -3 -65 -7 -65 -5 0 -6 29 -5 65 2 36 6
65 8 65 2 0 4 -29 4 -65z m-790 -45 c0 -5 -5 -10 -11 -10 -5 0 -7 5 -4 10 3 6
8 10 11 10 2 0 4 -4 4 -10z m520 -40 c0 -5 -4 -10 -10 -10 -5 0 -10 5 -10 10
0 6 5 10 10 10 6 0 10 -4 10 -10z m890 -39 c0 -13 -27 -21 -45 -15 -18 7 -19
16 -3 32 12 12 48 -1 48 -17z m-1303 -13 c-3 -7 -5 -2 -5 12 0 14 2 19 5 13 2
-7 2 -19 0 -25z m640 0 c-3 -7 -5 -2 -5 12 0 14 2 19 5 13 2 -7 2 -19 0 -25z
m-912 -35 c-10 -82 -24 -111 -24 -52 -1 59 9 109 21 109 7 0 8 -21 3 -57z
m209 -119 c-12 -58 -21 -81 -28 -74 -7 7 -6 26 3 62 34 140 54 149 25 12z
m122 50 c4 -14 4 -65 2 -113 -6 -92 -6 -94 -109 -241 -45 -64 -52 -70 -43 -35
4 17 9 34 12 40 4 5 7 16 8 25 4 44 65 240 74 240 12 0 35 63 32 87 -5 32 16
29 24 -3z m-232 -71 c-9 -36 -13 -43 -27 -43 -8 0 -8 3 1 12 7 7 12 22 12 35
0 13 5 23 10 23 6 0 8 -11 4 -27z m-1124 -48 c0 -5 -5 -3 -10 5 -5 8 -10 20
-10 25 0 6 5 3 10 -5 5 -8 10 -19 10 -25z m1191 -48 c-8 -8 -11 -7 -11 4 0 20
13 34 18 19 3 -7 -1 -17 -7 -23z m831 -21 c-3 -16 -13 -39 -24 -50 -11 -12
-28 -36 -39 -53 -41 -66 -35 -30 11 73 29 66 59 83 52 30z m-2082 -24 c0 -15
-2 -15 -10 -2 -13 20 -13 33 0 25 6 -3 10 -14 10 -23z m1159 -19 c1 -7 -3 -13
-9 -13 -5 0 -10 15 -9 33 0 27 2 29 9 12 5 -11 9 -26 9 -32z m-1240 -73 c-1
-23 -2 -23 -9 5 -20 73 -21 82 -6 50 9 -16 15 -41 15 -55z m115 -39 c-3 -3 -9
1 -14 9 -8 12 -10 10 -10 -7 0 -13 3 -22 8 -22 21 4 29 -5 41 -46 18 -61 12
-69 -27 -34 -26 23 -34 40 -39 79 -3 27 -2 57 2 67 5 10 7 27 6 38 0 11 8 -2
19 -29 11 -28 17 -52 14 -55z m1216 11 c0 -30 -29 -134 -41 -146 -6 -6 -13 -6
-20 1 -7 7 -3 32 15 83 14 41 26 83 26 94 0 17 2 18 10 6 5 -8 10 -26 10 -38z
m-263 -4 c-3 -7 -5 -2 -5 12 0 14 2 19 5 13 2 -7 2 -19 0 -25z m-1050 -10 c-3
-8 -6 -5 -6 6 -1 11 2 17 5 13 3 -3 4 -12 1 -19z m1510 -35 c-3 -10 -5 -4 -5
12 0 17 2 24 5 18 2 -7 2 -21 0 -30z m-1340 -110 c-3 -10 -5 -4 -5 12 0 17 2
24 5 18 2 -7 2 -21 0 -30z m1362 -25 c1 -5 -3 -8 -9 -8 -5 0 -10 12 -9 28 0
24 1 25 9 7 5 -11 9 -23 9 -27z m-512 -20 c-3 -7 -5 -2 -5 12 0 14 2 19 5 13
2 -7 2 -19 0 -25z m391 -5 c1 -21 7 -78 13 -126 9 -65 9 -91 1 -99 -8 -8 -13
-8 -16 3 -10 33 -13 70 -5 75 5 3 3 11 -5 19 -10 10 -11 26 -4 67 4 29 6 63 3
76 -3 12 -2 22 3 22 4 0 9 -17 10 -37z m133 -30 c0 -10 4 -39 8 -65 4 -26 4
-45 0 -43 -4 3 -10 -1 -12 -7 -3 -7 -6 -3 -6 10 -1 13 -6 32 -11 42 -7 13 -7
21 0 25 7 4 7 12 0 25 -13 25 -13 30 5 30 8 0 15 -8 16 -17z m-522 -55 c0 -21
-1 -21 -8 -4 -7 18 -8 18 -14 -5 -4 -13 -7 -31 -7 -39 0 -13 1 -13 11 0 12 17
2 -60 -12 -95 -9 -24 -12 101 -3 157 6 31 9 35 20 23 8 -7 14 -24 13 -37z
m-1193 -115 c-10 -10 -19 5 -10 18 6 11 8 11 12 0 2 -7 1 -15 -2 -18z m1738
-10 c9 -55 7 -93 -3 -93 -9 0 -18 47 -20 103 -1 40 15 33 23 -10z m-1580 6
c-3 -5 -10 -7 -15 -3 -5 3 -7 10 -3 15 3 5 10 7 15 3 5 -3 7 -10 3 -15z m319
4 c4 -4 25 -6 47 -6 22 0 43 -4 46 -9 3 -5 -21 -8 -59 -7 -50 2 -64 5 -60 16
6 14 16 17 26 6z m1217 -49 c0 -8 -4 -12 -10 -9 -5 3 -10 10 -10 16 0 5 5 9
10 9 6 0 10 -7 10 -16z m-40 -4 c0 -5 -4 -10 -10 -10 -5 0 -10 5 -10 10 0 6 5
10 10 10 6 0 10 -4 10 -10z m-103 -22 c-3 -8 -6 -5 -6 6 -1 11 2 17 5 13 3 -3
4 -12 1 -19z m-947 -113 c-6 -7 -19 -12 -28 -10 -9 2 -23 4 -29 4 -7 1 -13 5
-13 10 0 5 18 9 41 9 33 1 38 -2 29 -13z m80 5 c0 -5 -4 -10 -10 -10 -5 0 -10
5 -10 10 0 6 5 10 10 10 6 0 10 -4 10 -10z"/>
<path d="M2085 3450 c7 -12 42 -12 70 0 15 6 8 9 -28 9 -30 1 -46 -3 -42 -9z"/>
<path d="M1586 3375 c-21 -16 -20 -38 2 -58 10 -10 33 -46 51 -82 31 -60 34
-64 48 -48 13 16 13 16 3 -5 -9 -19 -8 -28 5 -48 16 -25 49 -32 61 -13 4 6 20
9 38 5 l31 -5 -27 15 c-16 8 -28 19 -28 25 0 5 -7 9 -16 7 -9 -2 -20 4 -24 12
-13 27 -30 86 -30 108 0 19 3 20 33 10 17 -5 48 -13 67 -18 19 -4 46 -12 60
-18 68 -28 199 -44 346 -42 37 1 42 -2 47 -26 3 -17 -3 -42 -15 -66 -20 -39
-32 -46 -43 -28 -9 15 -35 12 -29 -4 8 -20 -28 -30 -41 -12 -7 9 -16 11 -25 6
-8 -5 -18 -6 -22 -3 -5 2 -14 0 -21 -5 -7 -5 -21 -12 -32 -14 -11 -2 22 -5 73
-5 92 0 120 -7 88 -19 -9 -3 -16 -11 -16 -18 0 -6 -19 -20 -42 -31 -66 -29
-15 -32 59 -3 46 18 61 30 74 58 11 23 44 55 93 90 69 50 75 57 73 86 l-2 32
-51 -5 c-28 -3 -104 1 -170 8 -65 8 -153 14 -194 15 -41 0 -82 3 -90 6 -15 6
-86 26 -190 54 -30 8 -71 23 -91 33 -29 14 -40 15 -53 6z m704 -185 c0 -5 -5
-10 -11 -10 -5 0 -7 5 -4 10 3 6 8 10 11 10 2 0 4 -4 4 -10z m-530 -50 c0 -5
-4 -10 -10 -10 -5 0 -10 5 -10 10 0 6 5 10 10 10 6 0 10 -4 10 -10z"/>
<path d="M2460 3275 c0 -8 5 -15 11 -15 5 0 7 -6 3 -12 -5 -10 -4 -10 6 -1 14
13 7 43 -10 43 -5 0 -10 -7 -10 -15z"/>
<path d="M2500 3230 c0 -11 2 -20 4 -20 2 0 6 9 9 20 3 11 1 20 -4 20 -5 0 -9
-9 -9 -20z"/>
<path d="M1830 3110 c0 -5 5 -10 11 -10 5 0 7 5 4 10 -3 6 -8 10 -11 10 -2 0
-4 -4 -4 -10z"/>
<path d="M1770 3050 c0 -5 5 -10 10 -10 6 0 10 5 10 10 0 6 -4 10 -10 10 -5 0
-10 -4 -10 -10z"/>
<path d="M2015 2970 c-3 -5 1 -10 10 -10 9 0 13 5 10 10 -3 6 -8 10 -10 10 -2
0 -7 -4 -10 -10z"/>
<path d="M3968 5213 c7 -3 16 -2 19 1 4 3 -2 6 -13 5 -11 0 -14 -3 -6 -6z"/>
<path d="M771 4028 c-13 -16 -21 -31 -18 -34 3 -3 15 9 27 26 29 40 22 46 -9
8z"/>
<path d="M702 3969 c-19 -30 -8 -34 12 -4 9 14 13 25 9 25 -5 0 -14 -9 -21
-21z"/>
<path d="M716 3945 c-9 -26 -7 -32 5 -12 6 10 9 21 6 23 -2 3 -7 -2 -11 -11z"/>
<path d="M485 3700 c-9 -16 -13 -30 -11 -30 3 0 12 14 21 30 9 17 13 30 11 30
-3 0 -12 -13 -21 -30z"/>
<path d="M510 3683 c0 -11 -6 -25 -12 -32 -10 -11 -10 -12 -1 -7 20 11 35 44
23 51 -5 3 -10 -2 -10 -12z"/>
<path d="M471 3574 c0 -11 3 -14 6 -6 3 7 2 16 -1 19 -3 4 -6 -2 -5 -13z"/>
<path d="M3071 1344 c0 -11 3 -14 6 -6 3 7 2 16 -1 19 -3 4 -6 -2 -5 -13z"/>
<path d="M3096 1333 c-6 -14 -5 -15 5 -6 7 7 10 15 7 18 -3 3 -9 -2 -12 -12z"/>
<path d="M2637 1279 c4 -13 8 -18 11 -10 2 7 -1 18 -6 23 -8 8 -9 4 -5 -13z"/>
<path d="M0 5808 c0 -51 2 -58 19 -58 18 0 51 24 51 36 0 3 -16 22 -35 42
l-35 37 0 -57z"/>
<path d="M1090 5846 c0 -8 14 -16 33 -19 41 -6 55 2 32 20 -25 17 -65 17 -65
-1z"/>
<path d="M1010 5833 c-45 -13 -46 -14 -27 -25 20 -11 67 -3 67 11 0 12 -21 19
-40 14z"/>
<path d="M110 5781 c0 -5 9 -11 20 -14 24 -6 27 8 4 17 -21 8 -24 8 -24 -3z"/>
<path d="M1336 5725 c4 -8 2 -15 -4 -15 -5 0 -12 -8 -16 -17 -3 -10 -9 -24
-12 -30 -3 -8 1 -13 10 -13 9 0 16 4 16 9 0 5 14 12 30 16 41 9 38 30 -7 54
-19 10 -22 9 -17 -4z"/>
<path d="M3171 5706 c13 -11 99 -43 93 -35 -7 12 -67 39 -85 39 -7 0 -10 -2
-8 -4z"/>
<path d="M1046 5687 c-17 -12 -17 -14 0 -28 10 -8 38 -14 66 -14 48 0 54 -5
49 -42 -1 -7 3 -13 9 -13 5 0 19 -9 30 -20 23 -23 72 -26 90 -5 13 15 13 15
-69 47 -17 6 -21 12 -13 20 7 7 1 19 -23 39 -25 23 -42 29 -77 29 -24 0 -52
-6 -62 -13z"/>
<path d="M1360 5651 c0 -7 -4 -10 -9 -7 -5 3 -14 -1 -20 -8 -7 -8 -8 -17 -3
-20 11 -7 48 32 39 41 -4 3 -7 1 -7 -6z"/>
<path d="M1355 5599 c-33 -32 -55 -59 -48 -59 24 0 64 20 58 30 -3 6 1 7 9 4
12 -4 16 0 16 16 0 15 4 20 15 17 8 -4 17 -1 21 5 4 7 3 8 -4 4 -7 -4 -12 -1
-12 8 0 9 9 16 21 16 11 0 17 5 14 10 -12 19 -30 9 -90 -51z"/>
<path d="M160 5618 c0 -4 11 -8 25 -8 14 0 25 4 25 10 0 5 -11 9 -25 8 -14 -1
-25 -6 -25 -10z"/>
<path d="M3360 5625 c0 -2 30 -21 68 -41 37 -20 84 -47 104 -60 37 -24 72 -33
53 -15 -13 12 -225 122 -225 116z"/>
<path d="M13 5613 c-7 -2 -13 -18 -13 -34 0 -22 6 -30 24 -35 73 -18 115 24
57 59 -29 17 -46 20 -68 10z"/>
<path d="M3321 5616 c2 -2 15 -9 29 -16 23 -12 24 -12 11 3 -7 10 -20 17 -29
17 -8 0 -13 -2 -11 -4z"/>
<path d="M3602 5494 c9 -9 148 -74 148 -69 0 3 -31 21 -70 40 -65 33 -91 43
-78 29z"/>
<path d="M870 5470 c20 -13 47 -13 55 0 4 6 -9 10 -32 10 -28 0 -34 -3 -23
-10z"/>
<path d="M1156 5471 c-10 -15 22 -20 34 -5 10 11 9 14 -8 14 -12 0 -23 -4 -26
-9z"/>
<path d="M6358 5385 c-4 -22 -8 -53 -8 -70 1 -25 2 -27 11 -12 5 9 9 41 7 70
l-3 52 -7 -40z"/>
<path d="M3814 5395 c11 -8 27 -15 35 -15 10 1 7 6 -9 15 -33 19 -50 18 -26 0z"/>
<path d="M3941 5396 c2 -2 15 -9 29 -15 24 -11 24 -11 6 3 -16 13 -49 24 -35
12z"/>
<path d="M3870 5375 c0 -3 18 -14 40 -25 23 -12 43 -27 47 -35 3 -9 17 -14 32
-14 23 2 24 2 4 6 -13 2 -23 10 -23 16 0 11 -25 26 -77 47 -13 5 -23 7 -23 5z"/>
<path d="M4368 5363 c12 -2 30 -2 40 0 9 3 -1 5 -23 4 -22 0 -30 -2 -17 -4z"/>
<path d="M4600 5280 c0 -5 14 -10 31 -10 17 0 28 4 24 10 -3 6 -17 10 -31 10
-13 0 -24 -4 -24 -10z"/>
<path d="M6358 5195 c-2 -3 -20 -6 -38 -8 -33 -2 -34 -3 -57 -87 -12 -47 -22
-87 -23 -89 0 -2 8 0 17 3 9 4 19 3 22 -2 3 -5 18 -12 34 -16 25 -6 27 -4 27
23 0 16 7 62 15 102 14 68 15 86 3 74z m-71 -107 c-3 -8 -6 -5 -6 6 -1 11 2
17 5 13 3 -3 4 -12 1 -19z m20 -30 c-3 -7 -5 -2 -5 12 0 14 2 19 5 13 2 -7 2
-19 0 -25z"/>
<path d="M5525 4950 c-10 -16 4 -30 30 -30 32 0 40 16 16 29 -25 14 -38 14
-46 1z"/>
<path d="M5600 4926 c0 -2 7 -6 15 -10 8 -3 15 -1 15 4 0 6 -7 10 -15 10 -8 0
-15 -2 -15 -4z"/>
<path d="M4440 4880 c0 -5 5 -10 10 -10 6 0 10 5 10 10 0 6 -4 10 -10 10 -5 0
-10 -4 -10 -10z"/>
<path d="M5840 4810 c0 -12 28 -25 36 -17 3 3 -4 10 -15 17 -15 7 -21 7 -21 0z"/>
<path d="M5920 4770 c24 -20 46 -25 74 -14 32 12 16 27 -23 20 -23 -3 -42 -2
-46 4 -3 5 -11 10 -17 10 -6 0 -1 -9 12 -20z"/>
<path d="M6267 4754 c-15 -15 -6 -24 24 -24 20 0 29 4 27 13 -5 14 -40 21 -51
11z"/>
<path d="M5625 4740 c-3 -5 -22 -10 -41 -10 -24 0 -34 -4 -31 -12 2 -7 16 -12
31 -10 14 1 34 -2 45 -7 13 -8 29 -7 51 1 l33 11 -34 18 c-40 21 -46 22 -54 9z"/>
<path d="M5957 4689 c-3 -12 -10 -18 -16 -14 -6 3 -20 3 -32 0 -16 -5 -18 -10
-8 -21 13 -16 59 -19 59 -4 0 6 11 15 25 20 32 12 33 40 1 40 -16 0 -26 -7
-29 -21z"/>
<path d="M6056 4701 c-18 -7 -18 -8 -2 -14 19 -8 36 -1 36 14 0 10 -7 11 -34
0z"/>
<path d="M6168 4673 c-20 -5 -23 -18 -8 -28 18 -11 11 -27 -10 -21 -11 3 -29
9 -40 12 -16 5 -20 2 -20 -15 0 -17 -6 -21 -32 -21 -18 0 -46 7 -62 15 -35 19
-48 11 -34 -19 10 -23 60 -42 78 -31 5 3 32 -4 61 -15 29 -12 64 -19 78 -17
l26 4 -26 2 c-15 0 -30 8 -33 17 -8 22 23 59 38 44 17 -17 34 -11 40 15 4 16
13 25 26 25 33 0 31 17 -3 23 -17 3 -39 7 -47 10 -8 3 -23 3 -32 0z"/>
<path d="M6320 4671 c0 -6 5 -11 10 -11 6 0 8 -11 4 -25 -5 -21 -3 -25 15 -25
17 0 21 6 21 30 0 17 -4 30 -9 30 -5 0 -16 3 -25 6 -9 3 -16 1 -16 -5z"/>
<path d="M5699 4663 c-1 -5 -1 -11 0 -15 0 -4 -26 -5 -59 -1 -57 6 -60 5 -60
-16 0 -21 4 -22 38 -17 20 3 63 8 95 11 62 7 71 16 32 33 -30 14 -45 15 -46 5z"/>
<path d="M5790 4626 c0 -8 4 -17 9 -21 5 -3 12 -19 16 -35 6 -29 28 -40 40
-20 3 6 15 10 26 10 30 0 23 17 -10 23 -21 4 -30 13 -33 29 -4 27 -48 40 -48
14z"/>
<path d="M6256 4546 c-9 -15 -12 -27 -6 -31 10 -6 50 29 50 45 0 19 -28 10
-44 -14z"/>
<path d="M5820 4448 c0 -19 26 -42 34 -30 3 5 -3 17 -14 27 -17 15 -20 16 -20
3z"/>
<path d="M5930 4430 c0 -11 42 -31 49 -24 5 5 -30 33 -41 34 -5 0 -8 -5 -8
-10z"/>
<path d="M6211 4417 c-9 -22 -14 -23 -67 -19 -41 3 -55 2 -50 -7 4 -6 32 -11
64 -11 46 0 61 4 75 20 17 21 15 40 -4 40 -5 0 -13 -11 -18 -23z"/>
<path d="M6000 4366 c0 -9 5 -16 10 -16 6 0 10 4 10 9 0 6 -4 13 -10 16 -5 3
-10 -1 -10 -9z"/>
<path d="M299 3733 c-13 -16 -12 -17 4 -4 9 7 17 15 17 17 0 8 -8 3 -21 -13z"/>
<path d="M3690 3639 c-9 -6 -50 -7 -107 -4 -90 7 -94 6 -137 -22 -25 -15 -47
-34 -50 -40 -9 -23 27 -32 84 -21 39 7 99 6 200 -2 159 -14 267 -16 277 -6 3
3 -2 15 -12 26 -17 18 -50 29 -102 33 -13 1 -23 7 -23 14 0 17 -17 17 -23 1
-3 -10 -7 -10 -20 1 -9 7 -24 10 -33 7 -12 -4 -15 -2 -10 9 6 18 -21 20 -44 4z"/>
<path d="M166 3475 c-3 -9 -6 -22 -5 -28 0 -7 5 -1 10 12 5 13 8 26 5 28 -2 2
-6 -3 -10 -12z"/>
<path d="M4763 3483 c23 -6 22 -22 -2 -16 -10 3 -22 0 -25 -6 -4 -6 0 -11 8
-11 9 0 16 -5 16 -11 0 -8 4 -8 15 1 8 6 22 10 32 7 13 -3 11 -5 -7 -7 l-25
-2 25 -8 c14 -4 79 -9 145 -9 66 -1 140 -6 165 -11 25 -4 47 -6 50 -4 7 8 -23
24 -40 22 -8 0 -22 1 -30 4 -130 47 -150 52 -245 54 -55 1 -92 0 -82 -3z"/>
<path d="M136 3395 c-9 -26 -7 -32 5 -12 6 10 9 21 6 23 -2 3 -7 -2 -11 -11z"/>
<path d="M3331 3394 c0 -11 3 -14 6 -6 3 7 2 16 -1 19 -3 4 -6 -2 -5 -13z"/>
<path d="M83 3276 c-6 -20 -7 -36 -2 -36 10 0 23 44 17 61 -2 6 -9 -5 -15 -25z"/>
<path d="M4690 3282 c-48 -25 -108 -87 -96 -100 3 -2 21 2 42 8 26 9 63 10
123 5 120 -10 152 -13 266 -19 99 -6 100 -5 63 11 -35 15 -56 39 -23 27 32
-13 13 12 -34 44 -59 41 -102 51 -206 52 -69 0 -88 -4 -135 -28z"/>
<path d="M0 3105 c0 -8 2 -15 4 -15 2 0 6 7 10 15 3 8 1 15 -4 15 -6 0 -10 -7
-10 -15z"/>
<path d="M3695 2420 c-6 -10 7 -40 27 -62 7 -7 19 -25 27 -41 20 -38 66 -88
74 -80 4 3 7 -1 7 -10 0 -9 5 -17 10 -17 6 0 10 -7 10 -15 0 -8 9 -20 20 -27
11 -7 20 -18 20 -24 0 -6 11 -20 23 -31 13 -11 30 -29 38 -39 35 -48 155 -88
196 -66 17 10 17 11 -2 10 -31 -2 -91 21 -110 42 -10 11 -26 20 -37 20 -10 0
-18 4 -18 10 0 5 -13 16 -29 25 -17 8 -42 31 -57 51 -23 29 -25 37 -13 45 12
7 12 9 0 9 -8 0 -11 3 -8 6 4 4 13 1 21 -5 8 -7 21 -9 27 -5 7 4 9 3 6 -3 -8
-13 70 -66 83 -58 6 3 10 -1 10 -10 0 -12 6 -15 20 -10 11 3 39 -3 64 -13 39
-18 54 -19 128 -11 108 12 198 38 191 56 -3 7 2 13 11 13 9 0 16 -5 16 -11 0
-6 13 3 29 20 32 34 44 39 35 16 -4 -8 -1 -15 5 -15 6 0 10 3 10 8 -4 21 3 30
19 26 20 -4 118 81 103 90 -5 4 -32 1 -60 -5 -41 -8 -52 -15 -57 -34 -6 -25
-26 -37 -48 -29 -7 3 -21 -6 -30 -20 -9 -15 -23 -26 -32 -26 -8 0 -25 -9 -37
-20 -14 -14 -32 -20 -52 -18 -18 2 -35 -3 -42 -12 -14 -18 -102 -18 -114 1 -6
10 -10 10 -22 0 -21 -17 -84 -4 -101 21 -8 11 -20 18 -27 16 -23 -5 -78 23
-81 40 -2 10 -13 17 -28 17 -19 0 -26 7 -33 32 -8 28 -13 32 -33 27 -18 -5
-26 -1 -35 19 -15 33 -5 62 19 52 9 -4 32 -11 50 -15 19 -5 41 -15 50 -22 9
-8 33 -15 52 -16 19 -2 40 -9 45 -16 11 -14 64 -25 160 -31 50 -3 53 -2 18 4
-23 4 -66 19 -95 33 -29 15 -107 38 -173 53 -66 14 -142 35 -169 46 -55 21
-72 23 -81 9z"/>
<path d="M1491 2344 c0 -11 3 -14 6 -6 3 7 2 16 -1 19 -3 4 -6 -2 -5 -13z"/>
<path d="M6335 2210 c10 -11 20 -20 23 -20 3 0 -3 9 -13 20 -10 11 -20 20 -23
20 -3 0 3 -9 13 -20z"/>
<path d="M1406 2095 c4 -16 11 -34 16 -40 7 -7 8 -1 3 15 -12 40 -26 59 -19
25z"/>
<path d="M1545 2090 c-3 -5 -1 -10 4 -10 6 0 11 5 11 10 0 6 -2 10 -4 10 -3 0
-8 -4 -11 -10z"/>
<path d="M6250 2052 c0 -5 7 -15 15 -22 8 -7 15 -8 15 -2 0 5 -7 15 -15 22 -8
7 -15 8 -15 2z"/>
<path d="M1341 1934 c0 -11 3 -14 6 -6 3 7 2 16 -1 19 -3 4 -6 -2 -5 -13z"/>
<path d="M1280 1860 c0 -5 7 -7 15 -4 8 4 15 8 15 10 0 2 -7 4 -15 4 -8 0 -15
-4 -15 -10z"/>
<path d="M1521 1857 c-1 -9 8 -59 18 -110 11 -50 25 -135 30 -187 6 -52 13
-108 15 -125 1 -16 4 -2 5 33 1 67 -10 160 -35 282 -19 89 -32 133 -33 107z"/>
<path d="M6291 1800 c14 -31 19 -36 19 -24 0 6 -7 19 -16 30 -14 18 -14 18 -3
-6z"/>
<path d="M1372 1780 c0 -8 4 -26 8 -40 6 -20 8 -21 8 -5 0 11 -3 29 -8 40 -5
12 -8 14 -8 5z"/>
<path d="M1640 1780 c-8 -5 -12 -12 -9 -15 4 -3 12 1 19 10 14 17 11 19 -10 5z"/>
<path d="M6340 1721 c0 -6 4 -13 10 -16 6 -3 7 1 4 9 -7 18 -14 21 -14 7z"/>
<path d="M1392 1700 c0 -8 4 -26 8 -40 6 -20 8 -21 8 -5 0 11 -3 29 -8 40 -5
12 -8 14 -8 5z"/>
<path d="M1527 1648 c8 -59 13 -61 13 -5 0 26 -4 47 -9 47 -5 0 -7 -19 -4 -42z"/>
<path d="M4460 1679 c0 -5 9 -9 20 -9 11 0 20 2 20 4 0 2 -9 6 -20 9 -11 3
-20 1 -20 -4z"/>
<path d="M4518 1663 c7 -3 16 -2 19 1 4 3 -2 6 -13 5 -11 0 -14 -3 -6 -6z"/>
<path d="M4618 1643 c7 -3 16 -2 19 1 4 3 -2 6 -13 5 -11 0 -14 -3 -6 -6z"/>
<path d="M1192 1591 c-7 -19 -12 -43 -11 -55 1 -12 7 -2 15 24 17 53 13 80 -4
31z"/>
<path d="M4260 1589 c-13 -5 -73 -10 -132 -10 -63 0 -108 -4 -108 -9 0 -6 4
-10 9 -10 5 0 15 -10 23 -22 15 -22 14 -23 -18 -25 -33 -2 -46 10 -21 20 7 3
4 6 -6 6 -11 1 -29 -7 -42 -17 -23 -18 -23 -19 -4 -35 10 -9 19 -23 19 -30 0
-14 -54 -67 -68 -67 -14 0 -39 -33 -46 -60 l-7 -25 23 26 c31 35 134 102 238
154 122 61 209 115 185 114 -11 0 -31 -5 -45 -10z m-170 -46 c0 -13 -3 -13
-15 -3 -8 7 -15 16 -15 21 0 5 7 6 15 3 8 -4 15 -13 15 -21z m-80 -92 c0 -5
-7 -11 -14 -14 -10 -4 -13 -1 -9 9 6 15 23 19 23 5z"/>
<path d="M1161 1469 c-7 -23 -10 -44 -7 -47 3 -3 7 1 7 9 1 8 5 1 9 -16 5 -22
7 -13 6 33 0 34 -1 62 -2 62 0 0 -6 -18 -13 -41z"/>
<path d="M1191 1498 c0 -9 -4 -25 -7 -35 -5 -17 -5 -17 6 0 6 10 9 25 7 35 -4
15 -5 15 -6 0z"/>
<path d="M4776 1440 c3 -14 11 -32 16 -40 6 -10 7 -7 2 10 -3 14 -11 32 -16
40 -6 10 -7 7 -2 -10z"/>
<path d="M2041 1373 c0 -25 1 -26 9 -8 12 27 12 35 0 35 -5 0 -10 -12 -9 -27z"/>
<path d="M4804 1350 c2 -19 9 -75 16 -125 11 -82 10 -144 -5 -260 -5 -34 -4
-36 5 -16 18 41 24 221 10 312 -13 87 -34 157 -26 89z"/>
<path d="M1562 1300 c0 -14 2 -19 5 -12 2 6 2 18 0 25 -3 6 -5 1 -5 -13z"/>
<path d="M1527 1173 c-8 -14 -19 -68 -13 -62 8 8 26 69 21 69 -2 0 -6 -3 -8
-7z"/>
<path d="M1150 1001 c15 -30 30 -35 17 -6 -7 14 -16 25 -20 25 -4 0 -3 -9 3
-19z"/>
<path d="M4962 623 c-34 -99 -48 -149 -68 -243 -18 -82 -64 -346 -64 -366 0
-11 15 -14 63 -14 l63 0 0 207 c-1 193 5 264 35 436 6 33 8 61 6 63 -2 3 -18
-35 -35 -83z"/>
</g>
</svg>
